<svg width="26" height="25" viewBox="0 0 26 25" fill="none" xmlns="http://www.w3.org/2000/svg">
<path d="M20 11.6251V13.3751C20 13.7579 19.6719 14.0313 19.3438 14.0313H14.5312V18.8438C14.5312 19.2266 14.2031 19.5001 13.875 19.5001H12.125C11.7422 19.5001 11.4688 19.2266 11.4688 18.8438V14.0313H6.65625C6.27344 14.0313 6 13.7579 6 13.3751V11.6251C6 11.2969 6.27344 10.9688 6.65625 10.9688H11.4688V6.15631C11.4688 5.82819 11.7422 5.50006 12.125 5.50006H13.875C14.2031 5.50006 14.5312 5.82819 14.5312 6.15631V10.9688H19.3438C19.6719 10.9688 20 11.2969 20 11.6251ZM25.25 2.87506V22.1251C25.25 23.6016 24.0469 24.7501 22.625 24.7501H3.375C1.89844 24.7501 0.75 23.6016 0.75 22.1251V2.87506C0.75 1.45319 1.89844 0.250061 3.375 0.250061H22.625C24.0469 0.250061 25.25 1.45319 25.25 2.87506ZM22.625 21.7969V3.20319C22.625 3.03912 22.4609 2.87506 22.2969 2.87506H3.70312C3.48438 2.87506 3.375 3.03912 3.375 3.20319V21.7969C3.375 22.0157 3.48438 22.1251 3.70312 22.1251H22.2969C22.4609 22.1251 22.625 22.0157 22.625 21.7969Z" fill="#7A7A7A"/>
</svg>
