<svg width="25" height="25" viewBox="0 0 25 25" fill="none" xmlns="http://www.w3.org/2000/svg">
<path d="M19.5 11.6251V13.3751C19.5 13.7579 19.1719 14.0313 18.8438 14.0313H14.0312V18.8438C14.0312 19.2266 13.7031 19.5001 13.375 19.5001H11.625C11.2422 19.5001 10.9688 19.2266 10.9688 18.8438V14.0313H6.15625C5.77344 14.0313 5.5 13.7579 5.5 13.3751V11.6251C5.5 11.2969 5.77344 10.9688 6.15625 10.9688H10.9688V6.15631C10.9688 5.82819 11.2422 5.50006 11.625 5.50006H13.375C13.7031 5.50006 14.0312 5.82819 14.0312 6.15631V10.9688H18.8438C19.1719 10.9688 19.5 11.2969 19.5 11.6251ZM24.75 2.87506V22.1251C24.75 23.6016 23.5469 24.7501 22.125 24.7501H2.875C1.39844 24.7501 0.25 23.6016 0.25 22.1251V2.87506C0.25 1.45319 1.39844 0.250061 2.875 0.250061H22.125C23.5469 0.250061 24.75 1.45319 24.75 2.87506ZM22.125 21.7969V3.20319C22.125 3.03912 21.9609 2.87506 21.7969 2.87506H3.20312C2.98438 2.87506 2.875 3.03912 2.875 3.20319V21.7969C2.875 22.0157 2.98438 22.1251 3.20312 22.1251H21.7969C21.9609 22.1251 22.125 22.0157 22.125 21.7969Z" fill="#27458F"/>
</svg>
