<svg width="32" height="25" viewBox="0 0 32 25" fill="none" xmlns="http://www.w3.org/2000/svg">
<path d="M15.5625 6.6485C15.6719 6.53912 15.8359 6.48444 16 6.48444C16.1094 6.48444 16.2734 6.53912 16.3828 6.6485L26.5 14.9063V23.8751C26.5 24.3672 26.0625 24.7501 25.625 24.7501H19.4453C19.0078 24.7501 18.5703 24.3672 18.5703 23.8751V18.6251C18.5703 18.1876 18.1875 17.7501 17.6953 17.7501H14.1953C13.7578 17.7501 13.3203 18.1876 13.3203 18.6251V23.8751C13.3203 24.3672 12.9375 24.7501 12.5 24.7501H6.375C5.88281 24.7501 5.5 24.3672 5.5 23.8751V14.961L15.5625 6.6485ZM31.4766 12.2813C31.6406 12.3907 31.75 12.6094 31.75 12.7735C31.75 12.9376 31.6953 13.1016 31.5859 13.211L30.1641 14.9063C30.0547 15.0704 29.8906 15.1251 29.6719 15.1251C29.5078 15.1251 29.3438 15.0704 29.2344 14.961L16.3828 4.40631C16.2734 4.29694 16.1094 4.24225 16 4.24225C15.8359 4.24225 15.6719 4.29694 15.5625 4.40631L2.71094 14.961C2.60156 15.0704 2.4375 15.1251 2.27344 15.1251C2.05469 15.1251 1.89062 15.0704 1.78125 14.9063L0.359375 13.211C0.304688 13.1016 0.195312 12.9376 0.195312 12.7735C0.195312 12.6094 0.304688 12.3907 0.46875 12.2813L14.3047 0.851624C14.7422 0.523499 15.3438 0.304749 16 0.304749C16.6016 0.304749 17.2031 0.523499 17.6406 0.851624L22.5625 4.8985V0.960999C22.5625 0.578186 22.8359 0.304749 23.2188 0.304749H26.2812C26.6094 0.304749 26.9375 0.578186 26.9375 0.960999V8.50787L31.4766 12.2813Z" fill="#000000"/>
</svg>
