<svg width="33" height="25" viewBox="0 0 33 25" fill="none" xmlns="http://www.w3.org/2000/svg">
<path d="M16.0625 6.6485C16.1719 6.53912 16.3359 6.48444 16.5 6.48444C16.6094 6.48444 16.7734 6.53912 16.8828 6.6485L27 14.9063V23.8751C27 24.3672 26.5625 24.7501 26.125 24.7501H19.9453C19.5078 24.7501 19.0703 24.3672 19.0703 23.8751V18.6251C19.0703 18.1876 18.6875 17.7501 18.1953 17.7501H14.6953C14.2578 17.7501 13.8203 18.1876 13.8203 18.6251V23.8751C13.8203 24.3672 13.4375 24.7501 13 24.7501H6.875C6.38281 24.7501 6 24.3672 6 23.8751V14.961L16.0625 6.6485ZM31.9766 12.2813C32.1406 12.3907 32.25 12.6094 32.25 12.7735C32.25 12.9376 32.1953 13.1016 32.0859 13.211L30.6641 14.9063C30.5547 15.0704 30.3906 15.1251 30.1719 15.1251C30.0078 15.1251 29.8438 15.0704 29.7344 14.961L16.8828 4.40631C16.7734 4.29694 16.6094 4.24225 16.5 4.24225C16.3359 4.24225 16.1719 4.29694 16.0625 4.40631L3.21094 14.961C3.10156 15.0704 2.9375 15.1251 2.77344 15.1251C2.55469 15.1251 2.39062 15.0704 2.28125 14.9063L0.859375 13.211C0.804688 13.1016 0.695312 12.9376 0.695312 12.7735C0.695312 12.6094 0.804688 12.3907 0.96875 12.2813L14.8047 0.851624C15.2422 0.523499 15.8438 0.304749 16.5 0.304749C17.1016 0.304749 17.7031 0.523499 18.1406 0.851624L23.0625 4.8985V0.960999C23.0625 0.578186 23.3359 0.304749 23.7188 0.304749H26.7812C27.1094 0.304749 27.4375 0.578186 27.4375 0.960999V8.50787L31.9766 12.2813Z" fill="#000000"/>
</svg>
