<svg width="25" height="28" viewBox="0 0 25 28" fill="none" xmlns="http://www.w3.org/2000/svg">
<path d="M17.3672 16.625C21.4141 16.625 24.75 19.9609 24.75 24.0078V25.375C24.75 26.8516 23.5469 28 22.125 28H2.875C1.39844 28 0.25 26.8516 0.25 25.375V24.0078C0.25 19.9609 3.53125 16.625 7.57812 16.625C9.16406 16.625 9.875 17.5 12.5 17.5C15.0703 17.5 15.7812 16.625 17.3672 16.625ZM22.125 25.375V24.0078C22.125 21.3828 19.9922 19.25 17.3672 19.25C16.5469 19.25 15.2891 20.125 12.5 20.125C9.65625 20.125 8.39844 19.25 7.57812 19.25C4.95312 19.25 2.875 21.3828 2.875 24.0078V25.375H22.125ZM12.5 15.75C8.125 15.75 4.625 12.25 4.625 7.875C4.625 3.55469 8.125 0 12.5 0C16.8203 0 20.375 3.55469 20.375 7.875C20.375 12.25 16.8203 15.75 12.5 15.75ZM12.5 2.625C9.60156 2.625 7.25 5.03125 7.25 7.875C7.25 10.7734 9.60156 13.125 12.5 13.125C15.3438 13.125 17.75 10.7734 17.75 7.875C17.75 5.03125 15.3438 2.625 12.5 2.625Z" fill="#9FA19F"/>
</svg>
