<svg width="22" height="29" viewBox="0 0 22 29" fill="none" xmlns="http://www.w3.org/2000/svg">
<path d="M16.25 14.0626V15.5938C16.25 15.9766 15.9219 16.2501 15.5938 16.2501H6.40625C6.02344 16.2501 5.75 15.9766 5.75 15.5938V14.0626C5.75 13.7344 6.02344 13.4063 6.40625 13.4063H15.5938C15.9219 13.4063 16.25 13.7344 16.25 14.0626ZM15.5938 18.0001C15.9219 18.0001 16.25 18.3282 16.25 18.6563V20.1876C16.25 20.5704 15.9219 20.8438 15.5938 20.8438H6.40625C6.02344 20.8438 5.75 20.5704 5.75 20.1876V18.6563C5.75 18.3282 6.02344 18.0001 6.40625 18.0001H15.5938ZM21.5 7.71881V25.8751C21.5 27.3516 20.2969 28.5001 18.875 28.5001H3.125C1.64844 28.5001 0.5 27.3516 0.5 25.8751V3.12506C0.5 1.70319 1.64844 0.500061 3.125 0.500061H14.2812C14.9375 0.500061 15.6484 0.828186 16.1406 1.32037L20.6797 5.85944C21.1719 6.35162 21.5 7.06256 21.5 7.71881ZM14.5 3.34381V7.50006H18.6562L14.5 3.34381ZM18.875 25.8751V10.1251H13.1875C12.4219 10.1251 11.875 9.57819 11.875 8.81256V3.12506H3.125V25.8751H18.875Z" fill="#7A7A7A"/>
</svg>
